.
..............................Site Info...........................

 -   http://www.scenetime.com  *_*   

SceneTime is going to Close sign up on march/1, hurry up! get in before the doors are closed.

     We care to share . Join us on  http://www.scenetime.com 

    Be the first to get new release at  http://www.scenetime.com

        Seed back for speed


...................................NFO:.................................................








































          
          
              
              
                    
                    
                    
                    

Midnight.Skater.2002.DVDRiP.AC3-5.1.XviD-SiC

Poster:
[img]http://img267.imageshack.us/img267/4012/midnightskaterdvd.jpg[/img]

IMDB Link:
http://www.imdb.com/title/tt0378358/

Description:
Centered in a small college town, a mysterious skateboarder has been spray painting the campus red prompting six students to try to put an end to his vandalism. Meanwhile, several female students on campus have disappeared with no explanation as to why. Just as the students get close to the graffiti culprit, they realize that this is going to be a course in Murder 101. It's zombies, blood, horror, and college hijinks at its best. Are you prepared to find out the bloody mystery behind the "MIDNIGHT SKATER"?


General
Complete name                    : Midnight.Skater.2002.DVDRiP.AC3-5.1.XviD-SiC.avi
Format                           : AVI
Format/Info                      : Audio Video Interleave
File size                        : 1.37 GiB
Duration                         : 1h 30mn
Overall bit rate                 : 2 160 Kbps

Video
ID                               : 0
Format                           : MPEG-4 Visual
Format profile                   : Simple@L3
Format settings, BVOP            : 2
Format settings, QPel            : No
Format settings, GMC             : No warppoints
Format settings, Matrix          : Default (H.263)
Muxing mode                      : Packed bitstream
Codec ID                         : XVID
Codec ID/Hint                    : XviD
Duration                         : 1h 30mn
Bit rate                         : 1 895 Kbps
Width                            : 656 pixels
Height                           : 480 pixels
Display aspect ratio             : 4:3
Frame rate                       : 29.970 fps
Color space                      : YUV
Chroma subsampling               : 4:2:0
Bit depth                        : 8 bits
Scan type                        : Progressive
Compression mode                 : Lossy
Bits/(Pixel*Frame)               : 0.201
Stream size                      : 1.20 GiB (88%)
Writing library                  : XviD 1.0.3 (UTC 2004-12-20)

Audio
ID                               : 1
Format                           : AC-3
Format/Info                      : Audio Coding 3
Mode extension                   : CM (complete main)
Codec ID                         : 2000
Duration                         : 1h 30mn
Bit rate mode                    : Constant
Bit rate                         : 256 Kbps
Channel(s)                       : 6 channels
Channel positions                : Front: L C R, Side: L R, LFE
Sampling rate                    : 48.0 KHz
Bit depth                        : 16 bits
Compression mode                 : Lossy
Stream size                      : 166 MiB (12%)
Alignment                        : Aligned on interleaves
Interleave, duration             : 64 ms (1.92 video frames)
Interleave, preload duration     : 192 ms
Title                            : VTS_02_1 T81 3_2ch 384Kbps DELAY 0ms_new










Screenshots:
[img]http://img215.imageshack.us/img215/3996/vlcsnap2012022021h24m47.png[/img]
[img]http://img109.imageshack.us/img109/1302/vlcsnap2012022021h24m44.png[/img]
[img]http://img31.imageshack.us/img31/2007/vlcsnap2012022021h24m45.png[/img]
[img]http://img62.imageshack.us/img62/2552/vlcsnap2012022021h24m41.png[/img]

Note: 

Source: 

Enjoy!

Respects to T00NG0D, ELEKTRI4KA, PA, YeFsTe, MrRep and everyone in the struggle...RiP MU & BTJ